<svg xmlns="http://www.w3.org/2000/svg" viewBox="0 0 24 24" width="24" height="24">
  <path fill="#6e57e0" d="M17.813 4.653h.854c1.51.054 2.769.578 3.773 1.574 1.004.995 1.524 2.249 1.56 3.76v7.36c-.036 1.51-.556 2.769-1.56 3.773s-2.262 1.524-3.773 1.56h-13.3c-1.51-.036-2.769-.556-3.773-1.56S.322 18.858.286 17.347v-7.36c.036-1.511.556-2.765 1.56-3.76 1.004-.996 2.262-1.52 3.773-1.574h.774l-1.174-1.12a1.234 1.234 0 0 1-.373-.906c0-.356.124-.658.373-.907l.027-.027c.267-.249.573-.373.92-.373.347 0 .653.124.92.373L9.653 4.44c.071.071.134.142.187.213h4.267a.836.836 0 0 1 .16-.213l2.853-2.747c.267-.249.573-.373.92-.373.347 0 .662.151.929.4.267.249.391.551.391.907 0 .355-.124.657-.373.906L17.813 4.653zM5.04 7.76c-.356 0-.662.124-.92.373-.258.249-.391.551-.391.907v6.133c0 .356.133.662.391.911.258.249.564.373.92.373h13.547c.356 0 .662-.124.92-.373.258-.249.391-.555.391-.911V9.04c0-.356-.133-.658-.391-.907-.258-.249-.564-.373-.92-.373H5.04zm1.76 2.48c-.356 0-.662.124-.92.373-.258.249-.391.551-.391.907v.267c0 .356.133.662.391.911.258.249.564.373.92.373h.267c.356 0 .662-.124.92-.373.258-.249.391-.555.391-.911v-.267c0-.356-.133-.658-.391-.907-.258-.249-.564-.373-.92-.373H6.8zm4 0c-.356 0-.662.124-.92.373-.258.249-.391.551-.391.907v.267c0 .356.133.662.391.911.258.249.564.373.92.373h.267c.356 0 .662-.124.92-.373.258-.249.391-.555.391-.911v-.267c0-.356-.133-.658-.391-.907-.258-.249-.564-.373-.92-.373h-.267z"/>
</svg> 