<svg xmlns="http://www.w3.org/2000/svg" viewBox="0 0 256 256" width="256" height="256">
  <defs>
    <radialGradient id="a" cx="35.1%" cy="37.9%" r="53.5%" fx="35.1%" fy="37.9%">
      <stop offset="0%" stop-color="#0C59A4"/>
      <stop offset="100%" stop-color="#114A8B"/>
    </radialGradient>
    <radialGradient id="b" cx="44.2%" cy="42.8%" r="92.6%" fx="44.2%" fy="42.8%">
      <stop offset="0%" stop-color="#1B9DE2"/>
      <stop offset="100%" stop-color="#1595DF"/>
    </radialGradient>
    <radialGradient id="c" cx="38.5%" cy="52%" r="91.7%" fx="38.5%" fy="52%">
      <stop offset="0%" stop-color="#34CDFA"/>
      <stop offset="100%" stop-color="#28C3F4"/>
    </radialGradient>
  </defs>
  <path fill="url(#a)" d="M207.1 129c1.6-6.5 2.5-13.3 2.5-20.3C209.6 48.8 162.6 0 103.4 0c-40 0-74.9 22-94 54.5a98.8 98.8 0 0 1 127.3 30.6l-84.6 25.4c-9.7-7-23.5-6.6-32.8 1.3-9.2 8-11.7 21-6.2 31.8-27.5 16.5-43.2 47.5-38.9 80 4.3 32.6 28.8 59.3 61 66.7 32.3 7.4 65.7-5.4 84-32.1H53.4c12.5 13.8 31.6 19.8 49.9 15.3 18.3-4.4 32.2-19 36-37.5h67.8c9.3 54.8-31.6 105.2-89 109-57.3 3.8-106-42.4-106-97 0-1.3 0-2.6.1-3.8v-1.8c-12-19-19-41.3-19-65.2 0-68.7 56.8-124.5 127-124.5 62.2 0 113.7 44.8 124.6 104 .6 3.2 1 6.5 1.3 9.8"/>
  <path fill="url(#b)" d="M53.6 102c7-8.2 17.8-12.5 28.5-11.4 10.7 1 20.1 7 25.4 16.1l84.6-25.4a98.9 98.9 0 0 0-85.2-50C58.6 31.3 19 74.6 19 127.8v1.5c0 5.3.5 10.5 1.4 15.5 3.2-18 15.4-33.4 33.2-42.7"/>
  <path fill="url(#c)" d="M139.4 127.6h67.9c-3.2-48.5-43.6-86.8-94-86.8-10.2 0-20 1.6-29.2 4.5 10.9 3.6 20.5 10.4 28 19.4a37.7 37.7 0 0 1 27.3 63.1m13.9 50v.3c-6.7 34.8-39.2 58.4-74.9 54.2-35.7-4.2-62-35.4-60.4-71.4 1.7-36.1 31.2-65.2 67.8-66.8a70.8 70.8 0 0 1 67.5 47.9h-67.9c-3.7 18.5-17.7 33-36 37.5-18.2 4.5-37.3-1.6-49.8-15.4h153.1l.6 13.7"/>
</svg> 